<svg xmlns="http://www.w3.org/2000/svg" xmlns:xlink="http://www.w3.org/1999/xlink" width="375" height="812" viewBox="0 0 375 812">
  <defs>
    <clipPath id="clip-path">
      <path id="Clip_2" data-name="Clip 2" d="M0,0H15V15H0Z" fill="none"/>
    </clipPath>
    <clipPath id="clip-_26_Add_Order">
      <rect width="375" height="812"/>
    </clipPath>
  </defs>
  <g id="_26_Add_Order" data-name="#26 Add Order" clip-path="url(#clip-_26_Add_Order)">
    <rect width="375" height="812" fill="#f7f8fa"/>
    <g id="_iPhone_Xs_Home_Indicator" data-name="• iPhone Xs / Home Indicator" transform="translate(120 799)">
      <rect id="Line" width="135" height="5" rx="2.5"/>
    </g>
    <rect id="Hotspot" width="58" height="44" transform="translate(0 44)" fill="none"/>
    <g id="Button" transform="translate(16 712)">
      <g id="Button-2" data-name="Button">
        <rect id="Button-3" data-name="Button" width="343" height="50" rx="25"/>
        <text id="Place_order" data-name="Place order" transform="translate(171.5 33)" fill="#fff" font-size="20" font-family="SegoeUI, Segoe UI" letter-spacing="0.013em"><tspan x="-51.597" y="0">Send Order</tspan></text>
        <g id="Group_3" data-name="Group 3" transform="translate(11 11)">
          <path id="Clip_2-2" data-name="Clip 2" d="M0,0H15V15H0Z" fill="none"/>
          <g id="Group_3-2" data-name="Group 3" clip-path="url(#clip-path)">
            <path id="Fill_1" data-name="Fill 1" d="M15,1.078a1.078,1.078,0,0,1-1.078,1.078A11.78,11.78,0,0,0,2.156,13.922a1.078,1.078,0,1,1-2.156,0A13.937,13.937,0,0,1,13.922,0,1.078,1.078,0,0,1,15,1.078" fill="#fff"/>
          </g>
        </g>
      </g>
    </g>
    <g id="Text_Field" data-name="Text Field" transform="translate(16 304)">
      <g id="Rectangle" fill="#fff" stroke="#dbdbdb" stroke-miterlimit="10" stroke-width="1">
        <rect width="343" height="84" rx="5" stroke="none"/>
        <rect x="0.5" y="0.5" width="342" height="83" rx="4.5" fill="none"/>
      </g>
      <text id="_Text" data-name="↳ Text" transform="translate(16 29)" fill="#8c8c8c" font-size="15" font-family="SegoeUI, Segoe UI" letter-spacing="-0.016em"><tspan x="0" y="0">Describe the problem</tspan></text>
    </g>
    <g id="Input_time" data-name="Input time" transform="translate(16 244)">
      <g id="Text_Field-2" data-name="Text Field">
        <g id="Rectangle-2" data-name="Rectangle" fill="#fff" stroke="#dbdbdb" stroke-miterlimit="10" stroke-width="1">
          <rect width="164" height="46" rx="5" stroke="none"/>
          <rect x="0.5" y="0.5" width="163" height="45" rx="4.5" fill="none"/>
        </g>
        <g id="Glyph" transform="translate(128 14)">
          <g id="clock-circular-outline">
            <path id="Combined_Shape" data-name="Combined Shape" d="M0,9a9,9,0,1,1,9,9A9.01,9.01,0,0,1,0,9ZM1.967,9A7.033,7.033,0,1,0,9,1.967,7.04,7.04,0,0,0,1.967,9Zm9.154,4.077L8.067,10.185A.75.75,0,0,1,7.83,9.6c0-.012,0-.023,0-.035V5.472a.821.821,0,0,1,1.64,0V9.314l2.815,2.665a.747.747,0,0,1,0,1.1.853.853,0,0,1-1.16,0Z" fill="#c7c7cc"/>
          </g>
        </g>
        <text id="_Text-2" data-name="↳ Text" transform="translate(16 29)" fill="#8c8c8c" font-size="15" font-family="SegoeUI, Segoe UI" letter-spacing="-0.016em"><tspan x="0" y="0">Choose Time</tspan></text>
      </g>
      <g id="Text_Field-3" data-name="Text Field" transform="translate(179)">
        <g id="Rectangle-3" data-name="Rectangle" fill="#fff" stroke="#dbdbdb" stroke-miterlimit="10" stroke-width="1">
          <rect width="164" height="46" rx="5" stroke="none"/>
          <rect x="0.5" y="0.5" width="163" height="45" rx="4.5" fill="none"/>
        </g>
        <g id="Glyph-2" data-name="Glyph" transform="translate(128 14)">
          <g id="calendar-page-empty" transform="translate(0.5)">
            <path id="Shape" d="M15.692,18H1.308a1.274,1.274,0,0,1-.92-.382,1.233,1.233,0,0,1-.388-.9V3.857a1.233,1.233,0,0,1,.388-.9,1.277,1.277,0,0,1,.92-.382H2.615V1.607A1.538,1.538,0,0,1,3.1.472,1.591,1.591,0,0,1,4.25,0H4.9A1.6,1.6,0,0,1,6.059.472a1.541,1.541,0,0,1,.48,1.135v.964h3.923V1.607A1.538,1.538,0,0,1,10.942.472,1.591,1.591,0,0,1,12.1,0h.654a1.6,1.6,0,0,1,1.155.472,1.541,1.541,0,0,1,.48,1.135v.964h1.308a1.277,1.277,0,0,1,.92.382,1.233,1.233,0,0,1,.388.9V16.715a1.23,1.23,0,0,1-.389.9A1.27,1.27,0,0,1,15.692,18ZM1.308,6.429V16.714H15.692V6.429ZM12.1,1.286a.322.322,0,0,0-.235.09.312.312,0,0,0-.092.231V4.5a.312.312,0,0,0,.092.231.322.322,0,0,0,.235.09h.654a.321.321,0,0,0,.235-.09.312.312,0,0,0,.092-.231V1.607a.312.312,0,0,0-.092-.231.322.322,0,0,0-.235-.09Zm-7.846,0a.322.322,0,0,0-.235.09.312.312,0,0,0-.092.231V4.5a.312.312,0,0,0,.092.231.322.322,0,0,0,.235.09H4.9a.322.322,0,0,0,.235-.09A.312.312,0,0,0,5.231,4.5V1.607a.312.312,0,0,0-.092-.231.322.322,0,0,0-.235-.09Z" fill="#c7c7cc"/>
          </g>
        </g>
        <text id="_Text-3" data-name="↳ Text" transform="translate(16 29)" fill="#8c8c8c" font-size="15" font-family="SegoeUI, Segoe UI" letter-spacing="-0.016em"><tspan x="0" y="0">Choose Date</tspan></text>
      </g>
    </g>
    <g id="Choose_timing" data-name="Choose timing" transform="translate(16 165)">
      <text id="Choose_timing-2" data-name="Choose timing" transform="translate(0 17)" font-size="17" font-family="SegoeUI, Segoe UI" letter-spacing="-0.024em"><tspan x="0" y="0">Choose timing</tspan></text>
      <g id="immediately" transform="translate(0 36)">
        <g id="Form_Radio_Active" data-name="Form / Radio / Active" transform="translate(0 1)">
          <g id="Radio_button" data-name="Radio button">
            <g id="Stroke" fill="none" stroke="#cdced2" stroke-miterlimit="10" stroke-width="1">
              <rect width="22" height="22" rx="11" stroke="none"/>
              <rect x="0.5" y="0.5" width="21" height="21" rx="10.5" fill="none"/>
            </g>
          </g>
        </g>
        <text id="immediately-2" data-name="immediately" transform="translate(32 17)" font-size="17" font-family="SegoeUI, Segoe UI" letter-spacing="-0.024em"><tspan x="0" y="0">immediately</tspan></text>
      </g>
      <g id="according_to_time" data-name="according to time" transform="translate(160 36)">
        <g id="Form_Radio_Active-2" data-name="Form / Radio / Active" transform="translate(0 1)">
          <g id="Radio_button-2" data-name="Radio button">
            <rect id="Stroke-2" data-name="Stroke" width="22" height="22" rx="11" fill="#553fa5"/>
            <path id="Check" d="M0,4.5,3.5,8l8-8" transform="translate(5 7)" fill="none" stroke="#fff" stroke-miterlimit="10" stroke-width="1"/>
          </g>
        </g>
        <text id="according_to_time-2" data-name="according to time" transform="translate(32 17)" font-size="17" font-family="SegoeUI, Segoe UI" letter-spacing="-0.024em"><tspan x="0" y="0">according to time</tspan></text>
      </g>
    </g>
    <g id="Text_Field-4" data-name="Text Field" transform="translate(16 104)">
      <g id="Rectangle-4" data-name="Rectangle" fill="#fff" stroke="#dbdbdb" stroke-miterlimit="10" stroke-width="1">
        <rect width="343" height="46" rx="5" stroke="none"/>
        <rect x="0.5" y="0.5" width="342" height="45" rx="4.5" fill="none"/>
      </g>
      <g id="Glyph-3" data-name="Glyph" transform="translate(305 14)">
        <g id="photo-camera_1_" data-name="photo-camera (1)" transform="translate(0.971)">
          <path id="Combined_Shape-2" data-name="Combined Shape" d="M2.344,17A2.281,2.281,0,0,1,0,14.792V4.857A2.281,2.281,0,0,1,2.344,2.65H5.273a.243.243,0,0,0,.215-.122l.8-1.574,0-.009A1.813,1.813,0,0,1,7.906,0H12.15a1.81,1.81,0,0,1,1.615.941l.006.013.8,1.574a.245.245,0,0,0,.215.122h2.874A2.281,2.281,0,0,1,20,4.857v9.935A2.281,2.281,0,0,1,17.656,17ZM1.562,4.857v9.935a.76.76,0,0,0,.781.735H17.656a.76.76,0,0,0,.781-.735V4.857a.76.76,0,0,0-.781-.736H14.783a1.81,1.81,0,0,1-1.615-.94l-.006-.013-.8-1.574a.243.243,0,0,0-.215-.122H7.906a.245.245,0,0,0-.215.122l-.8,1.574,0,.007,0,.006a1.811,1.811,0,0,1-1.616.94H2.344A.76.76,0,0,0,1.562,4.857ZM6,9.5A4.5,4.5,0,1,1,10.5,14,4.505,4.505,0,0,1,6,9.5Zm1.44,0A3.06,3.06,0,1,0,10.5,6.44,3.064,3.064,0,0,0,7.44,9.5ZM16,7V5h2V7Z" transform="translate(0.029)" fill="#c7c7cc"/>
        </g>
      </g>
      <text id="_Text-4" data-name="↳ Text" transform="translate(16 29)" fill="#8c8c8c" font-size="15" font-family="SegoeUI, Segoe UI" letter-spacing="-0.016em"><tspan x="0" y="0">Image or Video of the problem</tspan></text>
    </g>
    <g id="_iPhone_Xs_Bars_Navigation_Small" data-name="• iPhone Xs / Bars | Navigation Small" transform="translate(-1)">
      <rect id="Rectangle-5" data-name="Rectangle" width="375" height="88" transform="translate(1)" fill="#fff"/>
      <rect id="Background" width="375" height="83" transform="translate(1)" fill="rgba(255,255,255,0.92)"/>
      <g id="Top_Center" data-name="Top Center" transform="translate(147 55)">
        <text id="_Title" data-name="↳ Title" transform="translate(42 16)" font-size="17" font-family="SegoeUI, Segoe UI" letter-spacing="-0.024em"><tspan x="-37.951" y="0">Add Order</tspan></text>
      </g>
      <g id="Top_Left" data-name="Top Left" transform="translate(17 52)">
        <g id="Glyph-4" data-name="Glyph" transform="translate(2 4)">
          <path id="Combined_Shape-3" data-name="Combined Shape" d="M9.587,20a1,1,0,0,1-.705-.291l-8.3-8.282a1.994,1.994,0,0,1,0-2.823L8.911.292A1,1,0,0,1,10.325,1.7L3.854,8.166a.5.5,0,0,0,.353.852H15v2H4.207a.5.5,0,0,0-.353.851l6.44,6.429A1,1,0,0,1,9.587,20Zm13.82-8.985H19v-2h4.407a.994.994,0,0,1,1,.985A1.007,1.007,0,0,1,23.407,11.015Z"/>
        </g>
      </g>
      <g id="Devider" transform="translate(0 87)">
        <path id="Line-2" data-name="Line" d="M0,.25l374.955.5" transform="translate(0.523 0.75)" fill="none" stroke="rgba(219,219,219,0.67)" stroke-linecap="square" stroke-miterlimit="10" stroke-width="1"/>
      </g>
      <g id="iPhone_X_Status_Bars_Status_Bar_Black_" data-name="iPhone X/Status Bars/Status Bar (Black)" transform="translate(1)">
        <g id="iPhone_X_Status_Bars_Status_Bar_Black_2" data-name="iPhone X/Status Bars/Status Bar (Black)">
          <rect id="Rectangle-6" data-name="Rectangle" width="375" height="44" fill="none"/>
          <g id="Battery" transform="translate(336 17)">
            <g id="Border" transform="translate(0 0.333)" fill="none" stroke="#000" stroke-miterlimit="10" stroke-width="1" opacity="0.35">
              <rect width="22" height="11.333" rx="2.667" stroke="none"/>
              <rect x="0.5" y="0.5" width="21" height="10.333" rx="2.167" fill="none"/>
            </g>
            <path id="Cap" d="M0,0V4A2.17,2.17,0,0,0,1.328,2,2.17,2.17,0,0,0,0,0" transform="translate(23 4)" opacity="0.4"/>
            <rect id="Capacity" width="18" height="7.333" rx="1.333" transform="translate(2 2.333)"/>
          </g>
          <path id="Wifi" d="M7.415,10.873l-2-2.016a.313.313,0,0,1,.01-.456,3.421,3.421,0,0,1,4.419,0,.31.31,0,0,1,.1.226.315.315,0,0,1-.094.23l-2,2.016a.311.311,0,0,1-.443,0Zm3.515-3.53a4.9,4.9,0,0,0-6.585,0,.311.311,0,0,1-.434-.006L2.758,6.17a.322.322,0,0,1,0-.459,7.158,7.158,0,0,1,9.752,0,.322.322,0,0,1,.005.459L11.364,7.337a.311.311,0,0,1-.434.006Zm2.66-2.687a8.64,8.64,0,0,0-11.907,0,.309.309,0,0,1-.434,0L.094,3.486a.322.322,0,0,1,0-.456,10.9,10.9,0,0,1,15.08,0,.323.323,0,0,1,0,.456L14.023,4.652a.307.307,0,0,1-.433,0Z" transform="translate(315.694 17.331)"/>
          <path id="Cellular_Connection" data-name="Cellular Connection" d="M15,10.667a1,1,0,0,1-1-1V1a1,1,0,0,1,1-1h1a1,1,0,0,1,1,1V9.667a1,1,0,0,1-1,1Zm-4.667,0a1,1,0,0,1-1-1V3.334a1,1,0,0,1,1-1h1a1,1,0,0,1,1,1V9.667a1,1,0,0,1-1,1Zm-4.667,0a1,1,0,0,1-1-1v-4a1,1,0,0,1,1-1h1a1,1,0,0,1,1,1v4a1,1,0,0,1-1,1ZM1,10.667a1,1,0,0,1-1-1v-2a1,1,0,0,1,1-1H2a1,1,0,0,1,1,1v2a1,1,0,0,1-1,1Z" transform="translate(293.667 17.667)"/>
          <g id="Time_Style" data-name="Time Style" transform="translate(21 15)">
            <text id="_Time" data-name="↳ Time" transform="translate(0 0.5)" font-size="14" font-family="SegoeUI, Segoe UI"><tspan x="14.582" y="15" letter-spacing="-0.02em">9:4</tspan><tspan y="15">1</tspan></text>
          </g>
        </g>
      </g>
    </g>
  </g>
</svg>
