<svg xmlns="http://www.w3.org/2000/svg" width="280" height="409" viewBox="0 0 280 409">
  <g id="Pie_Chart" data-name="Pie Chart" transform="translate(-520 -100)">
    <path id="Calendar_Tab" data-name="Calendar Tab" d="M0,0H93a0,0,0,0,1,0,0V73a3,3,0,0,1-3,3H0a0,0,0,0,1,0,0V0A0,0,0,0,1,0,0Z" transform="translate(707 433)" fill="#f9fafc"/>
    <text id="EVENTS" transform="translate(754 489)" fill="#5e6d81" font-size="11" font-family="SegoeUI, Segoe UI"><tspan x="-18.791" y="0">EVENTS</tspan></text>
    <text id="_" data-name="" transform="translate(754 467)" fill="#5e6d81" font-size="18" font-family="SegoeUI, Segoe UI"><tspan x="-5.81" y="0"></tspan></text>
    <rect id="Tasks_Tab" data-name="Tasks Tab" width="92" height="76" transform="translate(614 433)" fill="#f9fafc"/>
    <text id="TASKS" transform="translate(660 489)" fill="#5e6d81" font-size="11" font-family="SegoeUI, Segoe UI"><tspan x="-15.087" y="0">TASKS</tspan></text>
    <text id="_2" data-name="" transform="translate(660 467)" fill="#5e6d81" font-size="18" font-family="SegoeUI, Segoe UI"><tspan x="-5.81" y="0"></tspan></text>
    <path id="Active_Chart_Tab" data-name="Active Chart Tab" d="M613,432v77H523a3,3,0,0,1-3-3V432Z" fill="#fff"/>
    <text id="CHART" transform="translate(566 489)" fill="#14b9d6" font-size="11" font-family="SegoeUI, Segoe UI"><tspan x="-16.782" y="0">CHART</tspan></text>
    <text id="_3" data-name="" transform="translate(567 467)" fill="#14b9d6" font-size="18" font-family="SegoeUI, Segoe UI"><tspan x="-5.81" y="0"></tspan></text>
    <rect id="Body_BG" data-name="Body BG" width="280" height="280" transform="translate(520 152)" fill="#fff"/>
    <circle id="Outer_Circle_Flat" data-name="Outer Circle Flat" cx="100" cy="100" r="100" transform="translate(560 192)" fill="#14b9d6"/>
    <circle id="Inner_Circle" data-name="Inner Circle" cx="79.5" cy="79.5" r="79.5" transform="translate(581 213)" fill="#323a45"/>
    <text id="_4" data-name="%" transform="translate(695 290)" fill="#9ea7b3" font-size="24" font-family="SegoeUI, Segoe UI"><tspan x="-9.82" y="0">%</tspan></text>
    <text id="_79" data-name="79" transform="translate(652.5 312)" fill="#fff" font-size="60" font-family="SegoeUI, Segoe UI" letter-spacing="-0.05em"><tspan x="-30.844" y="0">79</tspan></text>
    <path id="Shape_1_copy_6" data-name="Shape 1 copy 6" d="M3,0H277a3,3,0,0,1,3,3V52a0,0,0,0,1,0,0H0a0,0,0,0,1,0,0V3A3,3,0,0,1,3,0Z" transform="translate(520 100)" fill="#323a45"/>
    <text id="Tasks_Completed" data-name="Tasks Completed" transform="translate(660 131)" fill="#f1f1f3" font-size="18" font-family="SegoeUI, Segoe UI"><tspan x="-66.691" y="0">Tasks Completed</tspan></text>
  </g>
</svg>
